<svg viewBox="0 0 110 110" fill="none" xmlns="http://www.w3.org/2000/svg">
  <rect width="100%" height="100%" rx="50%" fill="white"/>
  <path d="M38.0986 73.2617V36.6641C38.0986 35.3457 38.4238 34.3789 39.0742 33.7637C39.7246 33.1309 40.498 32.8145 41.3945 32.8145C42.1855 32.8145 42.9941 33.043 43.8203 33.5L74.5381 51.4561C75.6279 52.0889 76.3838 52.6602 76.8057 53.1699C77.2451 53.6621 77.4648 54.2598 77.4648 54.9629C77.4648 55.6484 77.2451 56.2461 76.8057 56.7559C76.3838 57.2656 75.6279 57.8369 74.5381 58.4697L43.8203 76.4258C42.9941 76.8828 42.1855 77.1113 41.3945 77.1113C40.498 77.1113 39.7246 76.7949 39.0742 76.1621C38.4238 75.5293 38.0986 74.5625 38.0986 73.2617Z" fill="#191919"/>
</svg>
