<svg width="584" height="120" viewBox="0 0 584 120" fill="none" xmlns="http://www.w3.org/2000/svg">
<path d="M537.383 12.8029C547.46 9.71496 558.868 6.27078 568.778 3.04038C571.654 2.09026 572.391 2.58907 572.391 4.86936V84.323C572.391 86.1758 572.557 86.5796 573.769 87.2209L582.325 91.8527C583.751 92.6841 583.419 93.5867 582.515 94.2518C577.501 97.981 572.771 101.663 567.709 105.819C558.749 101.568 549.314 97.5534 540.354 94.038C538.904 93.4679 538.904 92.6841 539.95 91.7102L544.37 87.6009V24.2993C544.37 18.6223 542.35 16.0808 537.264 14.8219C536.052 14.5131 535.933 13.2542 537.431 12.8029H537.383Z" fill="#666666"/>
<path fill-rule="evenodd" clip-rule="evenodd" d="M503.611 14.5606C503.753 6.95962 508.744 0.902613 516.778 1.11639C523.48 1.30641 527.639 5.62945 527.401 13.0879C527.116 22.4466 516.564 28.7173 510.812 28.361C507.295 28.1473 503.468 22.4703 503.611 14.5606Z" fill="#666666"/>
<path d="M525.333 84.2993C525.333 86.152 525.5 86.5558 526.712 87.1971L535.268 91.829C536.718 92.6128 536.361 93.5629 535.458 94.228C530.443 97.9572 525.714 101.639 520.651 105.796C511.691 101.544 502.256 97.5297 493.296 94.0143C491.846 93.4442 491.846 92.6603 492.892 91.6865L497.313 87.5772V51.3302C497.313 49.4774 497.146 49.0736 495.934 48.4323L487.378 43.7767C485.929 42.9929 486.261 42.019 487.188 41.3777C492.037 37.9572 497.859 33.6817 502.684 29.81C511.501 34.0855 520.105 37.886 529.35 41.5914C530.8 42.1853 530.8 42.9454 529.754 43.9192L525.333 48.0285V84.2993Z" fill="#666666"/>
<path d="M450.231 89.4062V51.3539C450.231 49.6675 450.113 49.0024 448.853 48.4561L436.661 42.2803C429.887 46.2945 424.754 53.2779 424.754 63.5392C424.754 82.7316 440.701 92.7553 450.208 89.4062H450.231ZM447.831 93.7767C442.983 97.2684 436.875 102.09 432.407 105.843C421.593 105.843 403.435 97.4109 403.435 77.981C403.435 53.6342 428.984 36.5558 454.937 29.8337C463.897 34.0855 473.332 38.0998 482.292 41.6152C483.742 42.1853 483.742 42.9691 482.696 43.943L478.276 48.0523V84.2993C478.276 86.152 478.442 86.5558 479.654 87.1971L488.21 91.829C489.66 92.6128 489.303 93.5629 488.4 94.228C483.386 97.9572 478.656 101.639 473.594 105.796C465.917 102.162 456.102 97.2922 447.831 93.7292V93.7767Z" fill="#666666"/>
<path d="M344.804 84.2993C344.804 86.152 344.946 86.6271 346.182 87.1971L348.083 88.0998V64.8931H344.804V84.2993ZM344.804 17.5534V45.1069H348.083V16.6033C347.537 16.4133 347.085 16.3183 346.776 16.3183C345.659 16.3183 345.113 16.8884 344.78 17.5534H344.804ZM301.358 88.2423V16.6271C300.788 16.4371 300.337 16.3183 300.051 16.3183C298.934 16.3183 298.364 16.8884 298.055 17.5534V84.2993C298.055 86.152 298.221 86.5558 299.433 87.1971L301.358 88.2423ZM302.951 89.0974L307.989 91.829C309.415 92.6603 309.083 93.5629 308.179 94.228C303.165 97.9572 298.435 101.639 293.373 105.796C284.674 101.995 273.338 97.2922 264.639 94.0143C263.19 93.4442 263.047 92.5178 264.212 91.6865L270.011 87.5772V25.2732C270.011 23.4204 269.844 23.0166 268.632 22.3753L257.153 16.1758C255.703 15.3919 256.06 14.4418 256.963 13.7767C261.977 10.0475 269.63 4.18052 274.716 0C283.201 4.29929 291.377 8.09976 299.22 11.3302C305.47 8.05226 312.006 4.37055 318.66 0C326.622 4.72684 335.582 9.45368 342.974 12.9454C349.866 9.07363 357.305 4.70309 364.387 0C373.276 5.08314 384.612 10.7363 392.859 14.4181C394.285 15.0594 394.309 15.772 393.263 16.7458L391.576 18.2423V75.9382C391.576 84.7506 393.144 88.171 397.874 89.9525C399.11 90.4275 399.086 91.4252 398.207 92.0428C393.144 95.7007 385.539 101.306 379.503 105.843C366.241 102.969 363.532 96.3658 363.532 81.0926V26.8171C363.532 24.9644 363.318 24.6318 362.153 23.8955C359.467 22.209 353.478 18.8361 349.699 17.2209V45.0831H361.797L349.699 64.6793V88.8361L356.069 91.829C357.566 92.5416 357.186 93.5867 356.259 94.228C351.244 97.6722 345.754 101.615 340.145 105.796C331.185 101.544 321.75 97.5297 312.79 94.0143C311.34 93.4442 311.34 92.6603 312.386 91.6865L316.807 87.5772V64.8931H302.951V89.0974ZM302.951 17.2447V60.6413L312.766 45.1069H316.759V26.8409C316.759 24.9881 316.545 24.6556 315.381 23.9192C312.695 22.2328 306.706 18.8599 302.951 17.2447Z" fill="#666666"/>
<path d="M27.7354 99.2399H0V7.67221H26.357C48.6024 7.67221 64.0268 20.3563 64.0268 51.6627V55.3919C64.0268 84.7268 51.7158 99.2637 27.7117 99.2637L27.7354 99.2399ZM56.4453 52.2803C56.4453 26.9359 45.6316 13.6342 25.9767 13.6342H7.34383V93.4204H28.4722C46.8674 93.4204 56.4453 81.6152 56.4453 54.7743V52.2803Z" fill="#666666"/>
<path d="M119.593 99.2399L119.094 86.6983C115.98 95.1544 106.284 100.119 95.351 100.119C81.6853 100.119 70.2298 92.6603 70.2298 76.2708V75.0356C70.2298 61.2351 80.188 51.0451 96.5868 51.0451C106.402 51.0451 114.863 55.1544 118.975 62.9691V47.9335C118.975 40.7363 114.626 33.7767 100.698 33.7767C92.2376 33.7767 83.6579 36.1283 78.9283 38.7411V32.6603C83.539 30.1663 91.6196 28.0523 101.673 28.0523C119.331 28.0523 125.915 38.1235 125.915 47.4347V99.2637H119.569L119.593 99.2399ZM118.951 74.0142C118.951 65.0594 110.609 56.3658 97.6801 56.3658C85.6305 56.3658 77.2885 63.8242 77.2885 74.133V75.9857C77.2885 88.2898 85.7493 94.6318 97.6801 94.6318C111.108 94.6318 118.951 85.9382 118.951 75.867V74.0142Z" fill="#666666"/>
<path d="M139.675 21.7102V11.1401H148.992V21.7102H139.675ZM140.792 99.2399V29.5249H148.136V99.2399H140.792Z" fill="#666666"/>
<path d="M161.279 7.67221H168.48V99.2637H161.279V7.67221Z" fill="#666666"/>
<path d="M204.106 120H196.905L206.364 98.6223L176.894 29.905H184.475L210.452 90.5463L236.69 29.905H243.891L204.106 120Z" fill="#666666"/>
</svg>
