<svg height="25" viewBox="0 0 61 25" width="61" xmlns="http://www.w3.org/2000/svg"><g fill="none" fill-rule="evenodd" transform="translate(-11 -5)"><path d="m0 0h80v30h-80z"/><g fill="#fff"><path d="m35.2618659 16.731635 1.2473506-.109058c.0590733.4998515.1965305.9099508.4123754 1.2303102.215845.3203594.5509677.5793695 1.0053782.7770381.4544105.1976685.9656146.2965013 1.5336277.2965013.5043957 0 .9497113-.0749766 1.3359602-.224932.3862489-.1499555.6736592-.3555732.8622396-.6168592.1885803-.261286.2828691-.5464243.2828691-.8554234 0-.3135433-.0908808-.5873215-.272645-.8213429s-.4816706-.430551-.8997282-.5895946c-.2681022-.1045145-.861099-.2669638-1.7790082-.4873529-.9179092-.220389-1.5608903-.4282787-1.9289628-.6236752-.477131-.2499258-.8327019-.5600563-1.0667233-.9304008-.2340214-.3703446-.3510304-.7849879-.3510304-1.2439425 0-.5043957.1431372-.9758395.4294158-1.4143456s.70433-.7713568 1.2541667-.998562c.5498367-.22720527 1.1610096-.34080619 1.8335371-.34080619.7406891 0 1.3938944.11928096 1.9596354.35784649.5657411.2385655 1.0008326.5895923 1.3052876 1.053091s.4680404.9883349.4907609 1.5745245l-1.2677989.0954257c-.0681616-.6316306-.2987715-1.1087544-.6918365-1.4313859-.3930651-.3226314-.9735658-.4839447-1.7415195-.4839447-.7997625 0-1.3825352.1465452-1.7483356.4396399-.3658004.2930948-.5486979.6463936-.5486979 1.0599072 0 .3589843.129505.6543466.388519.886096.2544699.2317493.9190352.4691753 1.993716.7122849s1.8119508.4555433 2.211832.6373075c.5816454.2681022 1.0110569.6077689 1.2882473 1.0190104s.4157835.8849573.4157835 1.4211617c0 .5316603-.1522252 1.0326403-.4566803 1.5029551-.304455.4703149-.7418185.8361099-1.3121037 1.0973959-.5702851.261286-1.2121303.3919271-1.9255548.3919271-.9042768 0-1.6619949-.1317771-2.273177-.3953352-.6111822-.2635581-1.090578-.6600253-1.438202-1.1894135-.3476241-.5293882-.5305215-1.128065-.548698-1.7960484zm9.6039176 3.210394v-9.99243661h1.2269022v3.58528081c.5725572-.6634393 1.295059-.995154 2.1675272-.995154.5362043 0 1.0019681.1056489 1.3973052.3169497.3953371.2113009.6782034.5032553.8486074.8758719.1704039.3726166.2556046.9133569.2556046 1.6222373v4.5872509h-1.2269022v-4.5872509c0-.6134542-.1329131-1.0599058-.3987432-1.3393682-.2658301-.2794625-.6418492-.4191916-1.1280684-.4191916-.3635284 0-.7054671.0942888-1.0258265.2828691-.3203594.1885804-.5486973.4441824-.6850204.7668139-.1363232.3226314-.2044837.767947-.2044837 1.3359601v3.9601676zm12.4871377-.8929122c-.4544105.386249-.891774.6588912-1.3121037.8179348-.4203297.1590437-.8713254.2385643-1.3530005.2385643-.7952183 0-1.4063913-.1942575-1.8335371-.5827785-.4271459-.388521-.6407156-.884957-.6407156-1.4893229 0-.3544402.0806567-.6782028.2419724-.9712976.1613157-.2930947.3726134-.5282486.6338994-.7054687.2612861-.1772201.5555124-.3112692.882688-.4021513.2408376-.0636174.6043605-.1249619 1.0905797-.1840353.9906149-.1181467 1.7199327-.2590119 2.1879755-.4225996.0045442-.1681319.0068162-.2749168.0068162-.3203578 0-.4998516-.115873-.8520144-.3476223-1.0564991-.3135432-.2771904-.779307-.4157835-1.3973053-.4157835-.5771013 0-1.0031047.1011048-1.2780231.3033174-.2749183.2022127-.4782639.5600556-.610043 1.0735394l-1.1996377-.1635869c.1090585-.5134839.288548-.9281272.5384738-1.2439425.2499257-.3158153.6111766-.5589212 1.0837635-.7293252.472587-.1704039 1.0201434-.2556046 1.6426857-.2556046.6179983 0 1.1201144.0727046 1.5063633.2181159.3862489.1454114.6702512.3283089.8520154.548698.1817642.220389.3089972.4987113.3817029.8349751.0408969.2090288.0613451.5861838.0613451 1.1314764v1.6358696c0 1.1405703.0261282 1.8619361.0783854 2.1641191s.155634.5918653.3101336.8690557h-1.2814312c-.1272349-.2544699-.2090276-.5521043-.2453804-.8929122zm-.1022419-2.7400815c-.4453222.1817642-1.1132956.3362615-2.0039402.4634964-.5043956.0727057-.8611025.1544983-1.0701313.2453804s-.3703421.2237952-.4839448.3987432c-.1136026.1749481-.170403.3692056-.170403.5827786 0 .3271755.123825.5998177.3714787.8179348.2476537.218117.6100406.3271739 1.0871716.3271739.4725869 0 .8929103-.1033769 1.2609828-.3101336.3680725-.2067568.6384427-.4896231.8111187-.8486074.131779-.2771904.1976675-.6861537.1976675-1.2269021zm3.1286006 3.6329937v-7.2387228h1.1042119v1.0973958c.2817345-.5134839.5418806-.8520146.7804462-1.0156024.2385655-.1635877.5009836-.2453804.7872622-.2453804.4135135 0 .8338369.1317771 1.2609828.3953351l-.4225997 1.1382926c-.2999109-.1772201-.5998173-.2658288-.8997282-.2658288-.2681022 0-.5089362.0806567-.7225091.2419724s-.3657981.3851095-.4566802.6713881c-.1363232.4362341-.2044837.9133579-.2044837 1.4313859v3.7897645zm9.6175498-2.3311141 1.2677989.1567708c-.1999406.7406891-.5702796 1.3155097-1.1110281 1.7244792-.5407484.4089694-1.231442.613451-2.0721014.613451-1.0587764 0-1.8982872-.3260346-2.5185575-.9781136-.6202703-.6520791-.9304008-1.5665665-.9304008-2.7434896 0-1.2178201.3135385-2.1629797.940625-2.8355073.6270864-.6725275 1.440469-1.0087862 2.4401721-1.0087862.9678943 0 1.7585567.3294427 2.3720108.9883379.6134542.6588952.9201767 1.5858787.9201767 2.7809782 0 .0727057-.0022721.1817626-.0068162.3271739h-5.3983695c.045441.7952184.2703708 1.4041193.6747962 1.8267211.4044253.4226017.9088134.6338994 1.5131793.6338994.4498664 0 .8338375-.1181449 1.1519248-.3544384.3180874-.2362934.5702814-.6134485.7565897-1.1314764zm-4.0283288-1.9834919h4.0419611c-.0545293-.60891-.2090265-1.0655857-.4634964-1.3700408-.390793-.4725869-.8974531-.7088768-1.5199955-.7088768-.563469 0-1.0371848.1885776-1.4211617.5657383-.3839768.3771607-.5964106.8815487-.6373075 1.5131793z"/><path d="m14.5412919 29.9132261v-11.6154525h-2.5760745v-4.2444963h2.5760745v-2.5487895c0-3.46312655 1.4540542-5.5218791 5.5868661-5.5218791h3.4402624v4.2452434h-2.1511009c-1.6084538 0-1.7148846.5931239-1.7148846 1.700189l-.0059961 2.1252362h3.895966l-.4557036 4.2444963h-3.4402624l.0000001 11.6154525z"/></g></g></svg>
