<svg height="17" viewBox="0 0 46 17" width="46" xmlns="http://www.w3.org/2000/svg"><g fill="none" fill-rule="evenodd" transform="translate(-7 -3)"><path d="m0 0h60v20h-60z"/><g fill="#fff"><path d="m23.2105263 11.2189974 1.0260554-.0897098c.0485931.4111718.1616636.7485145.3392151 1.0120383.1775514.2635237.4532193.4765823.8270118.639182.3737926.1625998.7943029.2438984 1.2615436.2438984.4149097 0 .7812209-.0616748 1.0989446-.1850264.3177236-.1233515.5541439-.2924901.7092678-.5074208s.2326847-.449482.2326847-.7036609c0-.2579169-.0747574-.4831235-.2242744-.6756267-.1495171-.1925032-.3962164-.354166-.7401056-.4849934-.2205376-.0859723-.7083295-.2196011-1.4633905-.4008905-.7550609-.18128939-1.2839694-.35229691-1.5867414-.51302771-.3924822-.2055859-.6849705-.46069548-.8774736-.76533641-.1925032-.30464092-.2887533-.6457215-.2887533-1.02325198 0-.41490972.1177429-.80271367.3532322-1.16342348s.5793733-.63450874 1.0316622-.82140501c.452289-.18689628.9550325-.28034301 1.5082454-.28034301.6092819 0 1.1466006.09811907 1.6119723.29436016s.8232727.4849915 1.0737137.86625989c.250441.3812684.3850043.81299231.403694 1.2951847l-1.042876.07849604c-.0560689-.51957164-.2457658-.91204792-.5690963-1.17744063-.3233306-.26539271-.8008434-.39808707-1.4325528-.39808707-.6578749 0-1.1372566.12054629-1.4381596.36164248s-.4513523.53171553-.4513523.87186675c0 .29529611.1065293.53825762.3195911.72889182.2093238.1906342.7559872.38593788 1.6400066.58591689.8840193.19997901 1.4904886.37472441 1.8194261.52424142.4784544.22053761.8316831.49994335 1.0596966.83822555.2280134.3382823.3420184.7279552.3420184 1.1690304 0 .4373373-.1252186.8494374-.3756596 1.2363127-.250441.3868752-.6102109.6877737-1.0793206.9027044-.4691096.2149308-.9970837.3223945-1.583938.3223945-.7438472 0-1.3671369-.1083982-1.8698878-.3251979-.502751-.2167997-.8970962-.5429288-1.1830475-.9783971s-.4364006-.9279326-.4513523-1.4774076zm7.900066 2.6408311v-8.219657h1.0092348v2.94920845c.4709786-.54573712 1.0652998-.81860159 1.7829815-.81860159.4410752 0 .8242069.08690547 1.1494064.260719.3251995.17381354.5578819.41397164.6980541.72048153s.2102572.75131635.2102572 1.33443271v3.7734169h-1.0092348v-3.7734169c0-.50461993-.1093327-.8718656-.3280013-1.10174801-.2186687-.22988242-.5279774-.3448219-.9279354-.3448219-.299034 0-.5803087.07756079-.8438324.2326847-.2635238.1551239-.4513517.36537906-.5634895.63077176-.1121378.26539271-.1682058.63170395-.1682058 1.09894455v3.2575858zm10.2717678-.7344987c-.3737926.3177237-.7335625.5419958-1.0793206.6728232s-.7167416.1962401-1.1129617.1962401c-.654137 0-1.1568804-.1597939-1.5082454-.4793865s-.5270449-.7279549-.5270449-1.2250989c0-.2915582.0663472-.5578814.1990436-.7989776.1326963-.2410962.3065072-.434531.521438-.58031.2149307-.1457791.4569577-.2560463.7260884-.3308048.19811-.052331.4971396-.1027922.8970976-.1513852.8148677-.0971861 1.4147958-.21306 1.7998021-.3476254.0037379-.13830319.0056068-.22614312.0056068-.26352238 0-.4111718-.0953156-.70085668-.2859498-.86906332-.2579169-.22801346-.6410485-.34201847-1.1494064-.34201847-.4747165 0-.8251417.08316759-1.0512862.24950527-.2261445.16633769-.3934142.4606949-.501814.88308048l-.9868074-.13456464c.0897102-.42238558.237356-.76346616.4429419-1.02325198s.5027466-.45976184.8914908-.59993404c.3887443-.1401722.8391575-.21025726 1.3512533-.21025726.5083579 0 .9213924.05980591 1.2391161.17941953.3177237.11961361.5513405.27006286.7008575.45135224.149517.18128939.2541774.41023389.3139842.68684037.0336413.17194457.0504617.48218773.0504617.9307388v1.3456464c0 .9382193.0214928 1.5316061.0644789 1.7801781.0429862.2485721.1280227.4868612.2551122.7148747h-1.0540897c-.104662-.2093238-.1719436-.4541543-.201847-.7344987zm-.0841029-2.2539578c-.3663167.1495171-.9157835.2766046-1.6484169.3812665-.4149097.0598068-.7083325.1270885-.880277.201847-.1719446.0747585-.304639.1840912-.3980871.3280013-.0934482.1439101-.1401715.3037041-.1401715.4793866 0 .2691306.1018569.4934027.3055739.6728232.2037169.1794204.501812.2691293.8942942.2691293.3887442 0 .7344971-.0850366 1.0372691-.2551122.3027719-.1700756.5251752-.402758.6672163-.6980541.1083999-.2280134.162599-.5644217.162599-1.0092348zm2.5735488 2.9884565v-5.95448549h.9083113v.90270448c.2317514-.42238557.4457444-.70085684.6419855-.83542216s.4121031-.20184697.6475924-.20184697c.3401512 0 .6859041.10839822 1.0372691.32519789l-.3476253.93634565c-.2467031-.14577909-.4934025-.21866755-.7401056-.21866755-.2205376 0-.4186446.06634719-.5943271.19904354s-.3009012.31678642-.3756597.55227572c-.1121377.35884085-.1682058.75131709-.1682058 1.17744059v3.1174143zm7.9112797-1.9175462 1.042876.1289578c-.1644687.6092819-.4691051 1.0821223-.9139182 1.4185356-.4448132.3364133-1.0129693.5046174-1.7044855.5046174-.8709367 0-1.561508-.2681921-2.0717349-.8045844-.5102268-.5363923-.7653364-1.2886385-.7653364-2.2567612 0-1.00176403.257913-1.77924086.7737467-2.33245383.5158338-.55321297 1.1849124-.82981531 2.007256-.82981531.7961781 0 1.4465674.27099554 1.9511873.81299473s.7569261 1.30452455.7569261 2.28759891c0 .0598068-.0018689.1495157-.0056068.2691293h-4.4406333c.0373793.654137.2224038 1.1550115.5550792 1.5026385.3326753.3476271.7475789.521438 1.2447229.521438.3700547 0 .6859046-.0971846.9475594-.2915567s.4691065-.5046153.6223615-.9307388zm-3.3136544-1.6315963h3.3248681c-.0448551-.500882-.1719427-.87653787-.3812665-1.12697888-.3214616-.38874424-.738234-.58311345-1.2503298-.58311345-.4635028 0-.8531756.15512158-1.1690303.46536939s-.4906001.72515132-.5242415 1.24472294z"/><path d="m9.69419459 19.9421507-.00000002-7.7436349h-1.71738298v-2.82966429h1.71738298v-1.69919296c0-2.30875105.96936953-3.68125275 3.72457743-3.68125275h2.2935083v2.83016225h-1.4340673c-1.0723025 0-1.1432564.39541595-1.1432564 1.13345932l-.0039974 1.41682414h2.5973107l-.3038024 2.82966429h-2.2935083l.0000001 7.7436349z"/></g></g></svg>
